<?xml version="1.0" encoding="iso-8859-1"?>
<!-- Generator: Adobe Illustrator 19.0.0, SVG Export Plug-In . SVG Version: 6.00 Build 0)  -->
<svg version="1.1" id="Layer_1" xmlns="http://www.w3.org/2000/svg" xmlns:xlink="http://www.w3.org/1999/xlink" x="0px" y="0px"
	 viewBox="0 0 512 512" style="enable-background:new 0 0 512 512;" xml:space="preserve">
	<g>
    <g>
      <path d="M 485.445 29.246 C 468.322 12.122 445.554 2.691 421.337 2.691 C 397.12 2.691 374.353 12.121 357.229 29.246 C 353.246 33.229 353.246 39.687 357.229 43.67 L 406.153 92.594 L 398.906 99.841 C 361.544 64.652 311.25 43.053 256 43.053 C 200.75 43.053 150.456 64.652 113.096 99.839 L 105.849 92.592 L 154.773 43.668 C 158.756 39.685 158.756 33.227 154.773 29.244 C 137.648 12.121 114.882 2.691 90.665 2.691 C 66.448 2.691 43.68 12.121 26.557 29.246 C 9.431 46.369 0 69.137 0 93.354 C 0 117.571 9.431 140.338 26.555 157.462 C 28.468 159.374 31.062 160.449 33.767 160.449 C 36.472 160.449 39.066 159.374 40.979 157.462 L 91.424 107.016 L 98.937 114.529 C 66.861 151.222 47.396 199.207 47.396 251.656 C 47.396 329.198 89.927 396.987 152.882 432.938 L 93.921 491.899 C 89.938 495.882 89.938 502.34 93.921 506.323 C 95.913 508.315 98.523 509.31 101.133 509.31 C 103.743 509.31 106.354 508.314 108.345 506.323 L 172.061 442.608 C 197.759 453.947 226.152 460.261 255.998 460.261 C 285.844 460.261 314.238 453.948 339.935 442.608 L 403.651 506.323 C 405.643 508.315 408.253 509.31 410.863 509.31 C 413.473 509.31 416.083 508.314 418.075 506.323 C 422.058 502.34 422.058 495.882 418.075 491.899 L 359.114 432.938 C 422.07 396.987 464.6 329.198 464.6 251.656 C 464.6 199.206 445.136 151.221 413.059 114.529 L 420.572 107.016 L 471.017 157.462 C 472.93 159.374 475.524 160.449 478.229 160.449 C 480.934 160.449 483.527 159.374 485.441 157.462 C 502.569 140.338 512 117.571 512 93.354 C 512 69.137 502.569 46.369 485.445 29.246 Z" fill="#fff"/>
    </g>
	</g>
	<g>
		<g>
			<path d="M485.445,29.246c-17.123-17.124-39.891-26.555-64.108-26.555s-46.984,9.43-64.108,26.555
				c-3.983,3.983-3.983,10.441,0,14.424l48.924,48.924l-7.247,7.247C361.544,64.652,311.25,43.053,256,43.053
				c-55.25,0-105.544,21.599-142.904,56.786l-7.247-7.247l48.924-48.924c3.983-3.983,3.983-10.441,0-14.424
				C137.648,12.121,114.882,2.691,90.665,2.691s-46.985,9.43-64.108,26.555C9.431,46.369,0,69.137,0,93.354
				s9.431,46.984,26.555,64.108c1.913,1.912,4.507,2.987,7.212,2.987s5.299-1.075,7.212-2.987l50.445-50.446l7.513,7.513
				c-32.076,36.693-51.541,84.678-51.541,137.127c0,77.542,42.531,145.331,105.486,181.282l-58.961,58.961
				c-3.983,3.983-3.983,10.441,0,14.424c1.992,1.992,4.602,2.987,7.212,2.987s5.221-0.996,7.212-2.987l63.716-63.715
				c25.698,11.339,54.091,17.653,83.937,17.653c29.846,0,58.24-6.313,83.937-17.653l63.716,63.715
				c1.992,1.992,4.602,2.987,7.212,2.987c2.61,0,5.22-0.996,7.212-2.987c3.983-3.983,3.983-10.441,0-14.424l-58.961-58.961
				c62.956-35.951,105.486-103.74,105.486-181.282c0-52.45-19.464-100.435-51.541-137.127l7.513-7.513l50.445,50.446
				c1.913,1.912,4.507,2.987,7.212,2.987s5.298-1.075,7.212-2.987C502.569,140.338,512,117.571,512,93.354
				S502.569,46.369,485.445,29.246z M34.283,135.31c-9.011-12.056-13.884-26.632-13.884-41.956c0-18.769,7.309-36.414,20.581-49.685
				c13.27-13.27,30.915-20.579,49.684-20.579c15.323,0,29.899,4.872,41.956,13.884L34.283,135.31z M444.205,251.658
				c0,103.776-84.428,188.205-188.205,188.205S67.795,355.435,67.795,251.658S152.223,63.453,256,63.453
				S444.205,147.881,444.205,251.658z M477.717,135.31l-98.337-98.337c12.057-9.012,26.632-13.884,41.956-13.884
				c18.769,0,36.413,7.309,49.684,20.58c13.271,13.271,20.58,30.916,20.58,49.684C491.602,108.678,486.728,123.254,477.717,135.31z"
				/>
		</g>

	</g>
	<g>
		<g>
			<path d="M256,83.837c-92.536,0-167.821,75.283-167.821,167.82S163.464,419.477,256,419.477s167.821-75.283,167.821-167.82
				S348.536,83.837,256,83.837z M256,399.079c-81.289,0-147.422-66.133-147.422-147.421S174.711,104.235,256,104.235
				s147.422,66.133,147.422,147.421S337.289,399.079,256,399.079z"/>
		</g>
	</g>
	<g>
		<g>
			<path d="M256,129.029c-5.632,0-10.199,4.566-10.199,10.199v108.203l-46.613,46.615c-3.983,3.983-3.983,10.441,0,14.424
				c1.992,1.992,4.602,2.987,7.212,2.987s5.22-0.996,7.212-2.987l48.498-48.498c0.182-0.182,0.346-0.374,0.511-0.566
				c2.188-1.871,3.579-4.645,3.579-7.749V139.228C266.199,133.595,261.632,129.029,256,129.029z"/>
		</g>
	</g>
	<g>
		<g>
			<path d="M376.125,277.162c-5.395-1.622-11.082,1.438-12.704,6.831c-5.65,18.796-16.244,35.88-30.635,49.405
				c-4.104,3.857-4.305,10.312-0.447,14.417c2.007,2.136,4.717,3.215,7.434,3.215c2.504,0,5.014-0.917,6.983-2.767
				c17.001-15.978,29.519-36.17,36.2-58.397C384.578,284.472,381.52,278.783,376.125,277.162z"/>
		</g>
	</g>
	<g>
		<g>
			<path d="M320.215,356.32c-2.542-5.028-8.675-7.044-13.704-4.502c-3.275,1.655-6.673,3.166-10.098,4.49
				c-5.254,2.031-7.868,7.936-5.838,13.191c1.564,4.045,5.424,6.525,9.516,6.525c1.223,0,2.466-0.221,3.675-0.688
				c4.053-1.567,8.073-3.354,11.947-5.312C320.74,367.483,322.756,361.347,320.215,356.32z"/>
		</g>
	</g>

</svg>
